REM DIRINDEX 1\2\6,1\2\7,1\2\8,1\2\9,1\3\10,1\3\11,1\4\12,1\4\13,1\4\14,1\5\15,1\5\16,1\5\17
REM DIRNAME folder01,folder02,folder03,folder04,folder05,folder06,folder07,folder08,folder09,folder10,folder11,folder12,folder13,folder14,folder15,folder16,folder17
TITLE ""
FILE "1400_2_sec12_1133_1149.mp3" MP3
  TRACK 01 AUDIO
    TITLE "0:"
    INDEX 01 00:00:00
  TRACK 02 AUDIO
    TITLE "13:cjc029_3879"
    INDEX 01 00:00:17
  TRACK 03 AUDIO
    TITLE "0:"
    INDEX 01 00:01:40
  TRACK 04 AUDIO
    TITLE "14:cjc029_3880"
    INDEX 01 00:01:44
  TRACK 05 AUDIO
    TITLE "0:"
    INDEX 01 00:04:09
  TRACK 06 AUDIO
    TITLE "13:cjc029_3881"
    INDEX 01 00:04:66
  TRACK 07 AUDIO
    TITLE "0:"
    INDEX 01 00:06:20
  TRACK 08 AUDIO
    TITLE "14:cjc029_3882"
    INDEX 01 00:06:26
  TRACK 09 AUDIO
    TITLE "0:"
    INDEX 01 00:08:73
  TRACK 10 AUDIO
    TITLE "13:cjc029_3883"
    INDEX 01 00:09:55
  TRACK 11 AUDIO
    TITLE "0:"
    INDEX 01 00:10:74
  TRACK 12 AUDIO
    TITLE "14:cjc029_3884"
    INDEX 01 00:11:05
  TRACK 13 AUDIO
    TITLE "0:"
    INDEX 01 00:14:02
  TRACK 14 AUDIO
    TITLE "13:cjc029_3885"
    INDEX 01 00:14:58
  TRACK 15 AUDIO
    TITLE "0:"
    INDEX 01 00:16:12
  TRACK 16 AUDIO
    TITLE "14:cjc029_3886"
    INDEX 01 00:16:18
  TRACK 17 AUDIO
    TITLE "0:"
    INDEX 01 00:17:55
  TRACK 18 AUDIO
    TITLE "13:cjc029_3887"
    INDEX 01 00:18:35
  TRACK 19 AUDIO
    TITLE "0:"
    INDEX 01 00:19:71
  TRACK 20 AUDIO
    TITLE "14:cjc029_3888"
    INDEX 01 00:20:04
  TRACK 21 AUDIO
    TITLE "0:"
    INDEX 01 00:23:51
  TRACK 22 AUDIO
    TITLE "13:cjc029_3889"
    INDEX 01 00:24:31
  TRACK 23 AUDIO
    TITLE "0:"
    INDEX 01 00:25:62
  TRACK 24 AUDIO
    TITLE "14:cjc029_3890"
    INDEX 01 00:25:66
  TRACK 25 AUDIO
    TITLE "0:"
    INDEX 01 00:27:55
  TRACK 26 AUDIO
    TITLE "13:cjc029_3891"
    INDEX 01 00:28:39
  TRACK 27 AUDIO
    TITLE "0:"
    INDEX 01 00:29:52
  TRACK 28 AUDIO
    TITLE "14:cjc029_3892"
    INDEX 01 00:29:56
  TRACK 29 AUDIO
    TITLE "0:"
    INDEX 01 00:31:10
  TRACK 30 AUDIO
    TITLE "13:cjc029_3893"
    INDEX 01 00:31:67
  TRACK 31 AUDIO
    TITLE "0:"
    INDEX 01 00:33:11
  TRACK 32 AUDIO
    TITLE "14:cjc029_3894"
    INDEX 01 00:33:22
  TRACK 33 AUDIO
    TITLE "0:"
    INDEX 01 00:35:74
  TRACK 34 AUDIO
    TITLE "13:cjc029_3895"
    INDEX 01 00:36:56
  TRACK 35 AUDIO
    TITLE "0:"
    INDEX 01 00:38:16
  TRACK 36 AUDIO
    TITLE "14:cjc029_3896"
    INDEX 01 00:38:20
  TRACK 37 AUDIO
    TITLE "0:"
    INDEX 01 00:41:47
  TRACK 38 AUDIO
    TITLE "13:cjc029_3897"
    INDEX 01 00:42:27
  TRACK 39 AUDIO
    TITLE "0:"
    INDEX 01 00:43:50
  TRACK 40 AUDIO
    TITLE "14:cjc029_3898"
    INDEX 01 00:43:52
  TRACK 41 AUDIO
    TITLE "0:"
    INDEX 01 00:47:64
  TRACK 42 AUDIO
    TITLE "12:cjc029_3899"
    INDEX 01 00:49:39
  TRACK 43 AUDIO
    TITLE "0:"
    INDEX 01 00:50:68
  TRACK 44 AUDIO
    TITLE "13:cjc029_3900"
    INDEX 01 00:51:71
  TRACK 45 AUDIO
    TITLE "0:"
    INDEX 01 00:53:57
  TRACK 46 AUDIO
    TITLE "14:cjc029_3901"
    INDEX 01 00:53:60
  TRACK 47 AUDIO
    TITLE "0:"
    INDEX 01 00:57:52
  TRACK 48 AUDIO
    TITLE "13:cjc029_3902"
    INDEX 01 00:58:32
  TRACK 49 AUDIO
    TITLE "0:"
    INDEX 01 01:00:12
  TRACK 50 AUDIO
    TITLE "14:cjc029_3903"
    INDEX 01 01:00:17
  TRACK 51 AUDIO
    TITLE "0:"
    INDEX 01 01:02:44
  TRACK 52 AUDIO
    TITLE "13:cjc029_3904"
    INDEX 01 01:03:26
  TRACK 53 AUDIO
    TITLE "0:"
    INDEX 01 01:04:54
  TRACK 54 AUDIO
    TITLE "14:cjc029_3905"
    INDEX 01 01:04:60
  TRACK 55 AUDIO
    TITLE "0:"
    INDEX 01 01:07:33
  TRACK 56 AUDIO
    TITLE "13:cjc029_3906"
    INDEX 01 01:08:21
  TRACK 57 AUDIO
    TITLE "0:"
    INDEX 01 01:09:46
  TRACK 58 AUDIO
    TITLE "14:cjc029_3907"
    INDEX 01 01:09:50
  TRACK 59 AUDIO
    TITLE "0:"
    INDEX 01 01:14:02
  TRACK 60 AUDIO
    TITLE "13:cjc029_3908"
    INDEX 01 01:14:59
  TRACK 61 AUDIO
    TITLE "0:"
    INDEX 01 01:15:74
  TRACK 62 AUDIO
    TITLE "14:cjc029_3909"
    INDEX 01 01:16:03
  TRACK 63 AUDIO
    TITLE "0:"
    INDEX 01 01:18:29
  TRACK 64 AUDIO
    TITLE "13:cjc029_3910"
    INDEX 01 01:19:09
  TRACK 65 AUDIO
    TITLE "0:"
    INDEX 01 01:20:55
  TRACK 66 AUDIO
    TITLE "14:cjc029_3911"
    INDEX 01 01:20:59
  TRACK 67 AUDIO
    TITLE "0:"
    INDEX 01 01:21:53
  TRACK 68 AUDIO
    TITLE "13:cjc029_3912"
    INDEX 01 01:22:35
  TRACK 69 AUDIO
    TITLE "0:"
    INDEX 01 01:24:06
  TRACK 70 AUDIO
    TITLE "14:cjc029_3913"
    INDEX 01 01:24:08
  TRACK 71 AUDIO
    TITLE "0:"
    INDEX 01 01:26:19
